# xmcd
#
# Track frame offsets:
#	150
#	11806
#	23146
#	34911
#	47317
#	58313
#	68705
#	83740
#	93823
#	103469
#	116694
#	129448
#	140678
#	153762
#	165253
#	179075
#	189488
#	199415
#	210530
#	220659
#	233313
#	241838
#	252678
#	263927
#	278068
#
# Disc length: 3861 seconds
#
# Revision: 1
# Processed by: cddbd v1.5.2PL0 Copyright (c) Steve Scherf et al.
# Submitted via: audiograbber 1.83.01
#
DISCID=610f1319
DTITLE=Patsy Cline - Crazy Disc 2
DYEAR=2012
DGENRE=Country
TTITLE0=I've Loved And Lost Again
TTITLE1=Lonely Street
TTITLE2=And The Teardrops Fall
TTITLE3=A Poor Man's Roses (Or A Rich Man's Gold)
TTITLE4=South Of The Boarder (Down Mexico Way)
TTITLE5=I Love You Honey
TTITLE6=The Wayward Wind
TTITLE7=I Love You So Much It Hurts
TTITLE8=True Love
TTITLE9=Life's Railroad To Heaven 
TTITLE10=Yes, I Understand
TTITLE11=Cry Not For Me
TTITLE12=If I Could See The World (Thru The Eyes Of A Child)
TTITLE13=Crazy Dreams
TTITLE14=A Church, A Courtroom And Then Goddbye
TTITLE15=Pick Me Up (On Your Way Down)
TTITLE16=Turn The Cards Slowly
TTITLE17=Stop The World (And Let Me Get Off)
TTITLE18=Three Cigarettes In An Astray
TTITLE19=Just A Closer Walk With Thee
TTITLE20=Come On In (And Make Yourself At Home)
TTITLE21=I Cried All The Way To The Alter
TTITLE22=Hungry For Love
TTITLE23=Then You'll Know
TTITLE24=I Can't Forgot You
EXTD=
EXTT0=
EXTT1=
EXTT2=
EXTT3=
EXTT4=
EXTT5=
EXTT6=
EXTT7=
EXTT8=
EXTT9=
EXTT10=
EXTT11=
EXTT12=
EXTT13=
EXTT14=
EXTT15=
EXTT16=
EXTT17=
EXTT18=
EXTT19=
EXTT20=
EXTT21=
EXTT22=
EXTT23=
EXTT24=
PLAYORDER=
